<svg xmlns="http://www.w3.org/2000/svg" width="24.57" height="24.619" viewBox="0 0 24.57 24.619">
  <path id="Icon_zocial-github" data-name="Icon zocial-github" d="M0,12.105A11.851,11.851,0,0,1,.985,7.329,11.891,11.891,0,0,1,7.509.8a12.075,12.075,0,0,1,9.552,0,11.994,11.994,0,0,1,6.524,6.524,12.075,12.075,0,0,1,0,9.552,12.083,12.083,0,0,1-6.524,6.573,12.075,12.075,0,0,1-9.552,0A11.978,11.978,0,0,1,.985,16.881,11.851,11.851,0,0,1,0,12.105Zm1.92,0a10.014,10.014,0,0,0,2.068,6.2,11.068,11.068,0,0,0,5.342,3.816v-1.97a2.4,2.4,0,0,1,.985-2.142,7.067,7.067,0,0,1-1.157-.172,5.817,5.817,0,0,1-2.142-.788q-2.24-1.354-2.24-4.9A4.427,4.427,0,0,1,6.007,9,4.142,4.142,0,0,1,6.13,5.852h.492a2.025,2.025,0,0,1,.615.123A8.466,8.466,0,0,1,9.38,7.058a11.613,11.613,0,0,1,2.954-.394,11.9,11.9,0,0,1,2.979.394,10.489,10.489,0,0,1,1.8-.985,2.669,2.669,0,0,1,1.132-.246l.3.025A4.3,4.3,0,0,1,18.662,9a4.427,4.427,0,0,1,1.231,3.151,5.771,5.771,0,0,1-1.354,4.161,4.951,4.951,0,0,1-1.945,1.231,8.466,8.466,0,0,1-2.24.468,2.451,2.451,0,0,1,1.009,2.142v1.97a11.15,11.15,0,0,0,5.244-3.865,10.033,10.033,0,0,0,2.019-6.155,10.376,10.376,0,0,0-.812-4.038A10.475,10.475,0,0,0,12.285,1.74a10.47,10.47,0,0,0-4.038.837,10.825,10.825,0,0,0-3.3,2.191,11.42,11.42,0,0,0-2.216,3.3,10.376,10.376,0,0,0-.812,4.038Z" transform="translate(0 0.18)" fill="#707070"/>
</svg>
